<?xml version="1.0" standalone="no"?>
<!DOCTYPE svg PUBLIC "-//W3C//DTD SVG 20010904//EN"
 "http://www.w3.org/TR/2001/REC-SVG-20010904/DTD/svg10.dtd">
<svg version="1.0" xmlns="http://www.w3.org/2000/svg"
 width="512.000000pt" height="512.000000pt" viewBox="0 0 512.000000 512.000000"
 preserveAspectRatio="xMidYMid meet">
<metadata>
Created by potrace 1.11, written by Peter Selinger 2001-2013
</metadata>
<g transform="translate(0.000000,512.000000) scale(0.100000,-0.100000)"
fill="#000000" stroke="none">
<path d="M0 2560 l0 -2560 225 0 225 0 0 2560 0 2560 -225 0 -225 0 0 -2560z"/>
<path d="M1300 2560 l0 -2560 330 0 330 0 0 2560 0 2560 -330 0 -330 0 0
-2560z"/>
<path d="M3375 5109 c544 -51 922 -310 1098 -755 74 -184 112 -374 126 -628
20 -363 -28 -700 -135 -943 -83 -188 -254 -394 -438 -528 -37 -28 -76 -57 -87
-65 -18 -14 2 -64 434 -1102 l452 -1087 148 -1 147 0 0 2560 0 2560 -917 -1
c-569 -1 -884 -5 -828 -10z"/>
<path d="M2810 3530 l0 -742 238 5 c258 5 295 11 405 70 118 62 207 198 249
379 30 125 32 470 5 588 -38 169 -139 310 -261 370 -112 54 -161 62 -408 67
l-228 5 0 -742z"/>
<path d="M2810 980 l0 -980 531 0 c421 0 530 3 526 13 -2 6 -158 421 -345 922
-187 501 -350 936 -362 968 l-21 57 -165 0 -164 0 0 -980z"/>
</g>
</svg>
